<?xml version="1.0" encoding="utf-8"?>
<!-- Generator: Adobe Illustrator 16.0.0, SVG Export Plug-In . SVG Version: 6.00 Build 0)  -->
<!DOCTYPE svg PUBLIC "-//W3C//DTD SVG 1.1//EN" "http://www.w3.org/Graphics/SVG/1.1/DTD/svg11.dtd">
<svg version="1.1" id="Layer_1" xmlns="http://www.w3.org/2000/svg" xmlns:xlink="http://www.w3.org/1999/xlink" x="0px" y="0px"
	 width="143.641px" height="48px" viewBox="0 0 143.641 48" enable-background="new 0 0 143.641 48" xml:space="preserve">
<g>
	<g>
		<g>
			<path fill="#FFFFFF" d="M101.551,16.94c-0.925-1.274-2.128-2.308-3.575-3.073c-1.458-0.771-3.202-1.161-5.185-1.161
				c-1.438,0-2.86,0.305-4.224,0.904c-1.373,0.602-2.591,1.489-3.623,2.638c-1.022,1.141-1.856,2.546-2.476,4.177
				c-0.621,1.635-0.935,3.513-0.935,5.582c0,1.823,0.212,3.555,0.63,5.151c0.427,1.625,1.095,3.062,1.99,4.27
				c0.913,1.234,2.101,2.202,3.535,2.876c1.357,0.638,2.987,0.961,4.842,0.961l0.261-0.003c2.905,0,5.39-0.836,7.388-2.484
				c2.014-1.659,3.221-4.016,3.586-7.002l0.114-0.913h-2.547l-0.105,0.688c-0.367,2.41-1.305,4.228-2.79,5.406
				c-1.501,1.193-3.431,1.797-5.738,1.797c-1.567,0-2.897-0.268-3.954-0.797c-1.052-0.525-1.922-1.254-2.584-2.164
				c-0.68-0.936-1.191-2.055-1.52-3.326c-0.277-1.07-0.453-2.233-0.523-3.463h19.902l0.03-0.782
				c0.064-1.712-0.109-3.383-0.513-4.967C103.125,19.648,102.458,18.196,101.551,16.94z M101.473,24.452H84.155
				c0.132-1.24,0.403-2.379,0.804-3.393c0.487-1.234,1.13-2.3,1.914-3.167c0.767-0.853,1.674-1.512,2.692-1.958
				c1.022-0.448,2.14-0.675,3.318-0.675c1.415,0,2.67,0.261,3.73,0.776c1.062,0.518,1.959,1.231,2.668,2.121
				c0.721,0.904,1.275,1.978,1.646,3.19C101.228,22.333,101.412,23.375,101.473,24.452z"/>
			<rect x="107.374" y="3.978" fill="#FFFFFF" width="2.555" height="34.774"/>
			<rect x="115.341" y="3.978" fill="#FFFFFF" width="2.553" height="34.774"/>
			<path fill="#FFFFFF" d="M141.084,13.101v12.896c-0.011,3.491-0.832,6.184-2.44,8.002c-1.594,1.805-3.748,2.72-6.402,2.72
				c-1.482,0-2.755-0.312-3.783-0.929c-1.053-0.632-1.928-1.457-2.601-2.45c-0.686-1.016-1.202-2.181-1.534-3.463
				c-0.332-1.284-0.501-2.594-0.506-3.893V13.101h-2.556v12.887l0.009,0.81h0.013c0.066,1.434,0.296,2.824,0.686,4.139
				c0.472,1.601,1.17,3.03,2.075,4.248c0.919,1.236,2.08,2.235,3.449,2.971c1.384,0.741,2.981,1.118,4.748,1.118
				c2.717,0,4.998-0.732,6.779-2.178c0.805-0.653,1.495-1.406,2.063-2.254l0.001,2.095c-0.071,4.688-3.945,8.504-8.633,8.508h-3.089
				V48h3.09l0.811-0.009v-0.022c5.762-0.43,10.373-5.334,10.376-11.167v-23.7H141.084z"/>
			<path fill="#FFFFFF" d="M79.137,25.983c-0.001-1.732-0.239-3.414-0.707-4.997c-0.473-1.6-1.171-3.029-2.077-4.247
				c-0.921-1.238-2.081-2.237-3.448-2.97c-1.382-0.742-2.979-1.119-4.748-1.119c-2.716,0-4.997,0.733-6.779,2.178
				c-0.806,0.654-1.496,1.409-2.064,2.259V3.922h-2.554v30.304l0.133,0.15c0.759,0.855,1.694,1.831,2.879,2.581
				c1.202,0.761,2.515,1.356,3.903,1.772c1.314,0.392,2.587,0.589,3.803,0.589c0.633,0,1.25-0.052,1.851-0.16
				c2.125-0.379,4.113-1.363,5.599-2.771c2.632-2.497,4.206-6.385,4.209-10.401l-0.528,0v-0.001L79.137,25.983z M76.578,25.768
				c-0.009,0.168-0.015,0.352-0.021,0.511c-0.004,0.144-0.008,0.264-0.013,0.327c-0.111,1.458-0.43,2.864-0.975,4.302v0
				c-0.773,2.044-2.237,3.782-4.015,4.77c-0.902,0.5-1.671,0.8-2.421,0.943c-0.722,0.138-1.544,0.168-2.512,0.095
				c-1.856-0.141-3.642-0.738-5.163-1.728c-0.931-0.606-1.618-1.172-2.145-1.771l0-7.233c0.002-3.518,0.824-6.229,2.442-8.06
				c1.595-1.805,3.748-2.719,6.401-2.719c1.484,0,2.757,0.312,3.785,0.929c1.051,0.63,1.926,1.455,2.6,2.449
				c0.689,1.021,1.205,2.186,1.533,3.464C76.392,23.275,76.561,24.539,76.578,25.768z"/>
		</g>
		<path fill="#FFFFFF" d="M39.474,0H5.026C2.255,0,0,2.255,0,5.027v34.447C0,42.245,2.255,44.5,5.026,44.5h34.448
			c2.772,0,5.026-2.254,5.026-5.025V5.027C44.5,2.255,42.246,0,39.474,0z M29.252,30.591c0.927,0.227,1.364,0.894,1.411,1.858
			h-3.222c-0.373,0-0.676-0.308-0.676-0.688c0-0.005,0-0.012,0-0.017h0c0,0-0.138-2.995-0.15-3.45
			c-0.045,0.177-1.536,4.499-6.521,4.839c-4.622,0.253-6.923-3.255-7.134-3.782c-0.462,0.304-0.389,1.24-0.389,1.24
			c0.863,0.177,1.361,0.894,1.481,1.853l-3.277,0.006c-0.373,0-0.677-0.308-0.677-0.687c0,0-0.255-4.327-0.074-8.377
			c0.194-4.404,1.198-5.44,1.423-5.74c0.312,3.591,2.915,5.124,5.712,5.124c3.536,0,6.403-2.913,6.403-6.506
			c0-1.988-0.879-3.767-2.261-4.96c-0.013-0.014-0.023-0.023-0.028-0.03c2.708-0.744,3.643,1.132,3.643,1.132
			c0.95-1.751,2.547-1.342,2.547-1.342c-0.594,2.345-0.515,2.25-0.515,2.25c1.846-0.134,2.967,1.34,2.967,1.34
			c4.161-1.281,5.567-1.719,5.567-1.719c1.188,3.617-0.927,6.805-3.11,7.7c-2.68,1.099-3.042,2.67-3.232,4.604
			C29.043,26.226,28.93,27.479,29.252,30.591z"/>
	</g>
</g>
</svg>
